HIERARCHY
ROOT Hips
{
	OFFSET -0.001795 -0.223333 0.028219
	CHANNELS 6 Xposition Yposition Zposition Zrotation Yrotation Xrotation 
	JOINT LeftUpLeg
	{
		OFFSET 0.069520 -0.091406 -0.006815
		CHANNELS 3 Zrotation Yrotation Xrotation
		JOINT LeftLeg
		{
			OFFSET 0.034277 -0.375199 -0.004496
			CHANNELS 3 Zrotation Yrotation Xrotation
			JOINT LeftFoot
			{
				OFFSET -0.013596 -0.397961 -0.043693
				CHANNELS 3 Zrotation Yrotation Xrotation
				JOINT LeftToe
				{
					OFFSET 0.026358 -0.055791 0.119288
					CHANNELS 3 Zrotation Yrotation Xrotation
					End Site
					{
						OFFSET 0.000000 0.000000 0.000000
					}
				}
			}
		}
	}
	JOINT RightUpLeg
	{
		OFFSET -0.067670 -0.090522 -0.004320
		CHANNELS 3 Zrotation Yrotation Xrotation
		JOINT RightLeg
		{
			OFFSET -0.038290 -0.382569 -0.008850
			CHANNELS 3 Zrotation Yrotation Xrotation
			JOINT RightFoot
			{
				OFFSET 0.015774 -0.398415 -0.042312
				CHANNELS 3 Zrotation Yrotation Xrotation
				JOINT RightToe
				{
					OFFSET -0.025372 -0.048144 0.123348
					CHANNELS 3 Zrotation Yrotation Xrotation
					End Site
					{
						OFFSET 0.000000 0.000000 0.000000
					}
				}
			}
		}
	}
	JOINT Spine
	{
		OFFSET -0.002533 0.108963 -0.026696
		CHANNELS 3 Zrotation Yrotation Xrotation
		JOINT Spine1
		{
			OFFSET 0.005487 0.135180 0.001092
			CHANNELS 3 Zrotation Yrotation Xrotation
			JOINT Spine2
			{
				OFFSET 0.001457 0.052922 0.025425
				CHANNELS 3 Zrotation Yrotation Xrotation
				JOINT Neck
				{
					OFFSET -0.002778 0.213870 -0.042857
					CHANNELS 3 Zrotation Yrotation Xrotation
					JOINT Head
					{
						OFFSET 0.005152 0.064970 0.051349
						CHANNELS 3 Zrotation Yrotation Xrotation
						End Site
						{
							OFFSET 0.000000 0.000000 0.000000
						}
					}
				}
				JOINT LeftShoulder
				{
					OFFSET 0.078845 0.121749 -0.034090
					CHANNELS 3 Zrotation Yrotation Xrotation
					JOINT LeftArm
					{
						OFFSET 0.090977 0.030469 -0.008868
						CHANNELS 3 Zrotation Yrotation Xrotation
						JOINT LeftForeArm
						{
							OFFSET 0.259612 -0.012772 -0.027456
							CHANNELS 3 Zrotation Yrotation Xrotation
							JOINT LeftHand
							{
								OFFSET 0.249234 0.008986 -0.001171
								CHANNELS 3 Zrotation Yrotation Xrotation
								End Site
								{
									OFFSET 0.000000 0.000000 0.000000
								}
							}
						}
					}
				}
				JOINT RightShoulder
				{
					OFFSET -0.081759 0.118833 -0.038615
					CHANNELS 3 Zrotation Yrotation Xrotation
					JOINT RightArm
					{
						OFFSET -0.096012 0.032551 -0.009143
						CHANNELS 3 Zrotation Yrotation Xrotation
						JOINT RightForeArm
						{
							OFFSET -0.253742 -0.013329 -0.021401
							CHANNELS 3 Zrotation Yrotation Xrotation
							JOINT RightHand
							{
								OFFSET -0.255298 0.007772 -0.005559
								CHANNELS 3 Zrotation Yrotation Xrotation
								End Site
								{
									OFFSET 0.000000 0.000000 0.000000
								}
							}
						}
					}
				}
			}
		}
	}
}
MOTION
Frames: 5
Frame Time: 0.050000
0.084778 0.835823 -0.044143 -1.860219 -8.465912 -8.116245 21.410349 1.372368 -5.407181 -0.473548 -0.186028 32.013662 -0.245836 -11.212125 -17.632836 0.000000 0.000000 0.000000 -18.707805 -0.100482 -13.238454 -0.727794 2.711522 32.743844 3.710948 18.674167 -8.030828 0.000000 0.000000 0.000000 7.195244 -1.391635 16.921846 -8.096892 2.486509 -26.013685 -1.569594 9.568455 22.908251 12.489995 -4.054783 -29.970574 0.000000 0.000000 0.000000 -32.037851 -13.035951 4.375089 -28.215133 -7.201500 -2.462717 -12.448007 -28.299605 4.003661 0.000000 0.000000 0.000000 34.907711 -0.554800 -0.753351 40.232393 8.095313 -3.802149 13.401978 27.909010 4.476701 0.000000 0.000000 0.000000 
0.084384 0.835976 -0.044183 -1.840339 -8.503763 -8.058613 21.286475 1.323755 -5.034812 -0.371895 -0.227025 31.584287 -0.168294 -10.952149 -17.660298 0.000000 0.000000 0.000000 -18.764191 -0.096051 -13.163408 -0.672627 2.665931 32.509912 3.772981 18.658657 -7.859773 0.000000 0.000000 0.000000 7.200055 -1.407146 17.114836 -8.151578 2.496671 -26.098299 -1.629949 9.410924 22.782754 12.315014 -3.912286 -30.339150 0.000000 0.000000 0.000000 -32.193462 -12.650347 4.178375 -28.208937 -7.213215 -2.471689 -12.512806 -27.827978 3.955490 0.000000 0.000000 0.000000 34.652501 -0.485132 -0.774811 40.599037 8.134265 -3.774920 13.414625 27.942183 4.483882 0.000000 0.000000 0.000000 
0.083710 0.836030 -0.044662 -1.905573 -8.389349 -7.804647 21.229593 1.291353 -4.989801 -0.187031 -0.314988 31.311920 -0.166733 -10.907223 -17.596013 0.000000 0.000000 0.000000 -18.697850 -0.097759 -13.308044 -0.550334 2.590065 32.415127 3.710605 18.275302 -7.743694 0.000000 0.000000 0.000000 7.114790 -1.415644 17.232150 -7.962141 2.442749 -26.266934 -1.706406 9.424154 22.874645 12.338487 -3.883217 -30.517893 0.000000 0.000000 0.000000 -32.218991 -12.497015 4.043672 -28.301809 -7.085266 -2.503231 -12.352857 -27.013632 3.796455 0.000000 0.000000 0.000000 34.749406 -0.541032 -0.779173 40.545792 8.492187 -3.684220 13.488884 28.003589 4.519014 0.000000 0.000000 0.000000 
0.082718 0.836317 -0.045400 -2.050384 -8.389478 -7.483008 21.470654 1.326455 -5.259621 -0.202042 -0.306669 31.435801 -0.194077 -10.915943 -17.501456 0.000000 0.000000 0.000000 -18.616035 -0.091379 -13.515283 -0.395977 2.490789 32.127234 3.738304 17.887565 -7.381208 0.000000 0.000000 0.000000 7.040149 -1.426504 17.385174 -7.972393 2.439372 -26.339695 -1.645014 9.344898 22.735328 12.225930 -3.786598 -30.716311 0.000000 0.000000 0.000000 -31.952984 -12.125869 3.821290 -28.341706 -7.205436 -2.487339 -12.393370 -26.513300 3.732955 0.000000 0.000000 0.000000 34.464374 -0.487193 -0.776178 40.791242 8.649612 -3.612874 13.638111 27.844970 4.519950 0.000000 0.000000 0.000000 
0.081534 0.836396 -0.046206 -2.176256 -8.373096 -7.151119 21.684262 1.357068 -5.522568 -0.315064 -0.257042 31.517225 -0.250710 -11.183577 -17.582659 0.000000 0.000000 0.000000 -18.565083 -0.082887 -13.652893 -0.117674 2.333840 31.754528 3.635366 17.718379 -7.512530 0.000000 0.000000 0.000000 6.896703 -1.431794 17.574991 -7.835167 2.396278 -26.527783 -1.627951 9.465276 22.736590 12.454795 -3.865816 -30.846362 0.000000 0.000000 0.000000 -31.682938 -12.081855 3.744955 -28.244906 -7.004850 -2.510685 -12.821261 -26.458987 3.818871 0.000000 0.000000 0.000000 34.538587 -0.589255 -0.800987 40.781811 8.733640 -3.601458 13.876841 28.289525 4.670679 0.000000 0.000000 0.000000 
